<?xml version="1.0" standalone="no"?>
<!DOCTYPE svg PUBLIC "-//W3C//DTD SVG 20010904//EN"
 "http://www.w3.org/TR/2001/REC-SVG-20010904/DTD/svg10.dtd">
<svg version="1.0" xmlns="http://www.w3.org/2000/svg"
 width="475.000000pt" height="475.000000pt" viewBox="0 0 475.000000 475.000000"
 preserveAspectRatio="xMidYMid meet">
<metadata>
Created by potrace 1.14, written by Peter Selinger 2001-2017
</metadata>
<g transform="translate(0.000000,475.000000) scale(0.100000,-0.100000)"
fill="#000000" stroke="none">
<path d="M3466 3950 c-66 -59 -84 -126 -53 -201 30 -73 132 -88 192 -29 28 28
30 36 32 115 l3 84 -34 26 c-19 14 -50 28 -69 32 -28 4 -40 0 -71 -27z"/>
<path d="M421 3928 c-52 -27 -78 -59 -85 -106 -12 -87 82 -181 166 -165 103
20 134 200 45 264 -40 29 -78 31 -126 7z"/>
<path d="M2050 3705 c-9 -11 -9 -26 -1 -64 11 -51 7 -78 -15 -96 -18 -15 -24
-66 -12 -102 10 -28 8 -36 -15 -72 -15 -22 -27 -45 -27 -51 0 -6 14 -38 30
-70 24 -48 30 -72 29 -116 -1 -30 2 -59 7 -64 16 -16 42 11 48 50 2 19 8 44
11 55 4 13 -5 41 -25 78 -29 54 -29 59 -16 91 8 18 19 37 26 41 11 7 6 56 -8
80 -12 20 -10 55 4 63 21 12 33 94 19 128 -6 16 -10 37 -7 47 6 22 -30 24 -48
2z"/>
<path d="M915 3560 c-3 -10 -1 -37 5 -59 8 -31 19 -45 50 -62 39 -22 39 -23
39 -83 -1 -36 3 -62 10 -64 6 -2 11 -10 11 -17 0 -12 35 -39 50 -38 31 2 70
-46 70 -86 0 -23 21 -83 27 -78 2 3 15 -6 29 -20 13 -13 29 -21 34 -18 15 9
12 46 -4 64 -8 9 -18 32 -21 51 -15 90 -45 134 -99 144 -16 3 -31 7 -33 10 -3
3 -8 32 -12 65 -7 61 -27 95 -61 106 -10 3 -24 20 -31 38 -14 31 -15 37 -18
57 -2 18 -40 10 -46 -10z"/>
<path d="M3105 3452 c-16 -26 -39 -48 -50 -50 -59 -9 -67 -14 -86 -57 -16 -35
-25 -45 -44 -45 -13 0 -31 -7 -39 -16 -16 -16 -17 -20 -22 -84 -2 -19 -8 -59
-15 -88 -6 -29 -9 -56 -5 -59 24 -24 90 82 84 135 -4 29 0 35 43 63 33 21 48
38 52 59 5 23 14 31 44 40 50 14 100 65 108 113 7 34 6 37 -16 36 -17 0 -33
-13 -54 -47z"/>
<path d="M1589 3437 c-49 -33 -79 -82 -79 -132 0 -75 91 -157 168 -149 76 7
127 76 118 159 -6 56 -27 89 -76 123 -42 28 -88 28 -131 -1z"/>
<path d="M1239 2856 c-45 -16 -106 -62 -114 -86 -3 -10 -8 -29 -10 -41 -9 -46
-34 -58 -123 -60 -65 -1 -88 -6 -107 -21 -14 -11 -25 -23 -25 -28 0 -5 -14
-29 -31 -53 -21 -30 -48 -52 -88 -71 -86 -41 -130 -90 -138 -154 -6 -57 -12
-65 -94 -134 -50 -42 -57 -52 -61 -92 -3 -25 -20 -73 -38 -108 -20 -38 -33
-76 -32 -97 1 -25 -9 -46 -43 -88 -69 -84 -59 -86 47 -11 23 17 26 17 61 -1
37 -19 40 -19 157 3 22 5 21 3 -5 -9 -16 -8 -44 -14 -62 -15 -17 0 -44 -5 -60
-11 -15 -6 -66 -19 -113 -29 -47 -10 -98 -24 -115 -30 -16 -6 -51 -13 -77 -15
-26 -2 -51 -6 -56 -9 -6 -3 -27 -8 -48 -12 -48 -7 -59 -17 -39 -34 12 -10 33
-10 102 -1 48 6 91 15 97 21 5 5 18 10 29 10 10 0 28 5 39 11 12 7 45 13 75
15 29 1 56 5 61 8 13 8 77 18 70 11 -3 -3 -16 -8 -29 -11 -13 -3 -89 -22 -169
-42 l-145 -37 -29 -60 c-18 -36 -29 -76 -29 -100 0 -52 45 -144 100 -205 37
-41 41 -51 35 -76 -28 -102 43 -163 208 -179 121 -12 225 -60 291 -134 23 -25
50 -56 60 -68 19 -20 100 -45 123 -38 6 2 27 6 46 9 19 3 69 17 110 31 165 57
263 63 395 21 44 -13 104 -28 134 -31 30 -4 66 -11 79 -16 14 -6 39 -7 55 -3
17 3 49 6 71 6 23 -1 70 10 106 23 187 69 295 79 438 43 84 -22 96 -23 120
-10 43 23 161 58 238 71 126 21 262 16 374 -15 159 -43 188 -40 257 22 65 60
116 85 182 91 65 6 122 -16 187 -71 22 -17 54 -42 71 -55 l33 -22 43 19 c46
20 106 74 129 115 7 13 25 47 40 75 30 55 73 93 126 110 67 23 132 102 138
167 4 37 0 49 -26 78 -20 23 -43 37 -67 42 -116 21 -152 136 -87 271 13 28 24
55 24 61 0 19 -47 51 -135 91 -49 23 -83 42 -75 42 8 0 40 -12 70 -26 65 -31
132 -51 179 -53 18 -1 41 -5 50 -10 9 -5 57 -12 106 -15 89 -7 118 -7 205 -4
25 1 79 -2 121 -6 84 -8 107 2 65 29 -29 19 -199 31 -238 16 -13 -4 -36 -4
-53 0 -16 5 -48 10 -70 10 -22 1 -67 7 -100 15 -33 7 -71 15 -85 17 -49 9
-116 28 -145 42 -16 8 -65 29 -107 46 -43 17 -78 35 -78 40 0 5 4 9 8 9 11 0
32 60 32 91 0 43 -48 102 -150 184 -36 28 -81 57 -100 63 -24 8 -41 24 -55 49
-19 36 -36 45 -104 58 -24 4 -39 15 -101 71 -21 19 -63 40 -104 53 -37 12 -78
28 -90 35 -11 8 -46 19 -76 26 -30 7 -82 27 -115 44 -50 25 -69 30 -119 28
-40 -2 -64 2 -75 12 -37 32 -87 53 -126 50 -22 -1 -49 3 -60 10 -11 7 -43 18
-72 25 -43 11 -56 10 -82 -3 -16 -9 -37 -16 -46 -16 -8 0 -37 -15 -63 -33 -39
-27 -53 -31 -82 -27 -19 4 -43 2 -54 -3 -13 -7 -26 -3 -47 12 -16 12 -71 38
-122 58 -82 31 -98 34 -152 28 -33 -3 -82 -8 -110 -10 -27 -1 -90 -17 -139
-34 l-89 -31 -87 40 c-94 43 -153 50 -221 26z m1036 -132 c13 -5 14 -8 3 -15
-20 -13 -35 -11 -42 6 -6 16 10 20 39 9z m-1332 -142 c-22 -34 -83 -80 -83
-64 0 4 11 24 25 44 14 20 25 41 25 46 0 5 13 9 29 9 l28 0 -24 -35z m-148
-121 c-6 -5 -21 -11 -35 -15 -21 -5 -20 -3 5 9 35 17 42 18 30 6z m2729 -27
c20 -19 20 -24 1 -24 -8 0 -19 9 -25 20 -13 24 2 27 24 4z m-2834 -44 c-43
-51 -57 -58 -46 -22 5 15 71 72 84 72 2 0 -15 -23 -38 -50z m1450 -150 c-19
-15 -28 -16 -39 -7 -12 10 -8 13 20 18 19 4 36 7 39 7 3 1 -6 -7 -20 -18z
m-161 -4 c-2 -1 -19 -8 -38 -14 -29 -10 -32 -10 -21 3 7 8 24 15 38 15 14 0
23 -2 21 -4z m1887 -273 c-6 -6 -36 9 -36 18 0 5 9 4 20 -3 10 -7 18 -14 16
-15z m-521 -82 c0 -32 -3 -38 -20 -36 -11 1 -27 3 -34 4 -10 1 -3 13 19 36 19
19 34 35 34 35 1 0 1 -17 1 -39z m-565 -25 l-23 -21 19 33 c10 18 20 28 23 21
2 -6 -7 -21 -19 -33z m-1135 -2 c0 -35 -64 -28 -65 8 0 7 38 16 55 13 6 -1 10
-10 10 -21z m1867 -12 c4 -15 1 -18 -18 -14 -19 3 -21 7 -11 22 13 21 22 18
29 -8z m-2603 -31 c23 -15 -51 -19 -89 -5 l-35 13 55 0 c30 0 61 -3 69 -8z
m933 -56 c81 -14 159 -25 175 -26 15 0 46 -7 68 -14 l40 -14 -35 4 c-19 3 -73
11 -120 19 -58 10 -134 13 -237 11 -138 -3 -173 2 -143 20 6 3 10 14 10 24 0
15 6 17 48 9 26 -4 113 -19 194 -33z m-777 16 c8 -21 2 -22 -25 -1 -25 19 -25
19 -3 17 12 0 25 -8 28 -16z m378 -41 c9 -12 9 -13 -3 -2 -8 6 -23 12 -34 12
-29 0 -50 15 -42 29 8 13 59 -13 79 -39z m-906 4 c-3 -3 -12 -4 -19 -1 -8 3
-5 6 6 6 11 1 17 -2 13 -5z m1626 -31 c-7 -2 -19 -2 -25 0 -7 3 -2 5 12 5 14
0 19 -2 13 -5z"/>
</g>
</svg>
